<mxfile host="app.diagrams.net" modified="2023-01-03T01:35:24.077Z" agent="5.0 (Windows NT 10.0; Win64; x64) AppleWebKit/537.36 (KHTML, like Gecko) Chrome/108.0.0.0 Safari/537.36" version="20.7.4" etag="lnBAJRUp0MJB223VZfSb" type="github">
  <diagram id="qClPB_h9Qo0hTZ_bgKdx" name="Page-1">
    <mxGraphModel dx="1147" dy="611" grid="1" gridSize="10" guides="1" tooltips="1" connect="1" arrows="1" fold="1" page="1" pageScale="1" pageWidth="827" pageHeight="1169" math="0" shadow="0">
      <root>
        <mxCell id="0" />
        <mxCell id="1" parent="0" />
        <mxCell id="iHK2AN2Xd2E4cDX30vkL-1" value="" style="swimlane;fontStyle=1;align=center;verticalAlign=top;childLayout=stackLayout;horizontal=1;startSize=0;horizontalStack=0;resizeParent=1;resizeParentMax=0;resizeLast=0;collapsible=1;marginBottom=0;" vertex="1" parent="1">
          <mxGeometry x="10" y="10" width="460" height="270" as="geometry">
            <mxRectangle x="130" y="200" width="50" height="40" as="alternateBounds" />
          </mxGeometry>
        </mxCell>
        <mxCell id="iHK2AN2Xd2E4cDX30vkL-23" value="«abstract»&lt;br&gt;&lt;b&gt;Personne&lt;/b&gt;" style="html=1;" vertex="1" parent="iHK2AN2Xd2E4cDX30vkL-1">
          <mxGeometry width="460" height="40" as="geometry" />
        </mxCell>
        <mxCell id="iHK2AN2Xd2E4cDX30vkL-2" value="+ Int: id&#xa;+ String : name &#xa;+ String : password&#xa;+ String : email&#xa;+ String : cin" style="text;strokeColor=none;fillColor=none;align=left;verticalAlign=top;spacingLeft=4;spacingRight=4;overflow=hidden;rotatable=0;points=[[0,0.5],[1,0.5]];portConstraint=eastwest;" vertex="1" parent="iHK2AN2Xd2E4cDX30vkL-1">
          <mxGeometry y="40" width="460" height="84" as="geometry" />
        </mxCell>
        <mxCell id="iHK2AN2Xd2E4cDX30vkL-3" value="" style="line;strokeWidth=1;fillColor=none;align=left;verticalAlign=middle;spacingTop=-1;spacingLeft=3;spacingRight=3;rotatable=0;labelPosition=right;points=[];portConstraint=eastwest;strokeColor=inherit;" vertex="1" parent="iHK2AN2Xd2E4cDX30vkL-1">
          <mxGeometry y="124" width="460" height="8" as="geometry" />
        </mxCell>
        <mxCell id="iHK2AN2Xd2E4cDX30vkL-4" value="+ geters()&#xa;+ seters() : void&#xa;+ afficherMédicament(): void&#xa;+ rechercherMédicament(String medicamentName,&#xa;                                          ArrayList&lt;Medicament&gt; medis) : ArrayList&lt;Medicament&gt;&#xa;+SélectionnerMédicament() : Medicament&#xa;+LogOut() : void&#xa;+authentifier(String username,String password) : void&#xa;&#xa;" style="text;strokeColor=none;fillColor=none;align=left;verticalAlign=top;spacingLeft=4;spacingRight=4;overflow=hidden;rotatable=0;points=[[0,0.5],[1,0.5]];portConstraint=eastwest;fontStyle=1" vertex="1" parent="iHK2AN2Xd2E4cDX30vkL-1">
          <mxGeometry y="132" width="460" height="138" as="geometry" />
        </mxCell>
        <mxCell id="iHK2AN2Xd2E4cDX30vkL-11" value="Admin" style="swimlane;fontStyle=1;align=center;verticalAlign=top;childLayout=stackLayout;horizontal=1;startSize=26;horizontalStack=0;resizeParent=1;resizeParentMax=0;resizeLast=0;collapsible=1;marginBottom=0;" vertex="1" parent="1">
          <mxGeometry x="30" y="610" width="420" height="140" as="geometry" />
        </mxCell>
        <mxCell id="iHK2AN2Xd2E4cDX30vkL-13" value="" style="line;strokeWidth=1;fillColor=none;align=left;verticalAlign=middle;spacingTop=-1;spacingLeft=3;spacingRight=3;rotatable=0;labelPosition=right;points=[];portConstraint=eastwest;strokeColor=inherit;" vertex="1" parent="iHK2AN2Xd2E4cDX30vkL-11">
          <mxGeometry y="26" width="420" height="8" as="geometry" />
        </mxCell>
        <mxCell id="iHK2AN2Xd2E4cDX30vkL-14" value="+ modifierMédicament(String medicamentName,&#xa;                                    String medicamentQuantite,&#xa;                                    String medicamentPrix) : void&#xa;+ajouterNouveauMédicament(String medicamentName,&#xa;                                    String medicamentQuantite,&#xa;                                    String medicamentPrix) : void" style="text;strokeColor=none;fillColor=none;align=left;verticalAlign=top;spacingLeft=4;spacingRight=4;overflow=hidden;rotatable=0;points=[[0,0.5],[1,0.5]];portConstraint=eastwest;fontStyle=1" vertex="1" parent="iHK2AN2Xd2E4cDX30vkL-11">
          <mxGeometry y="34" width="420" height="106" as="geometry" />
        </mxCell>
        <mxCell id="iHK2AN2Xd2E4cDX30vkL-15" value="Médicament" style="swimlane;fontStyle=1;align=center;verticalAlign=top;childLayout=stackLayout;horizontal=1;startSize=26;horizontalStack=0;resizeParent=1;resizeParentMax=0;resizeLast=0;collapsible=1;marginBottom=0;" vertex="1" parent="1">
          <mxGeometry x="10" y="810" width="510" height="170" as="geometry" />
        </mxCell>
        <mxCell id="iHK2AN2Xd2E4cDX30vkL-16" value="+ String name&#xa;+ int quantite&#xa;+ double prix" style="text;strokeColor=none;fillColor=none;align=left;verticalAlign=top;spacingLeft=4;spacingRight=4;overflow=hidden;rotatable=0;points=[[0,0.5],[1,0.5]];portConstraint=eastwest;fontStyle=1" vertex="1" parent="iHK2AN2Xd2E4cDX30vkL-15">
          <mxGeometry y="26" width="510" height="64" as="geometry" />
        </mxCell>
        <mxCell id="iHK2AN2Xd2E4cDX30vkL-17" value="" style="line;strokeWidth=1;fillColor=none;align=left;verticalAlign=middle;spacingTop=-1;spacingLeft=3;spacingRight=3;rotatable=0;labelPosition=right;points=[];portConstraint=eastwest;strokeColor=inherit;" vertex="1" parent="iHK2AN2Xd2E4cDX30vkL-15">
          <mxGeometry y="90" width="510" height="8" as="geometry" />
        </mxCell>
        <mxCell id="iHK2AN2Xd2E4cDX30vkL-18" value="+ getMedicamentFromData(ArrayList&lt;Medicament&gt; medicaments,&#xa;                                                String medicamentName) :Medicament&#xa;+updateQuantite(ArrayList&lt;Medicament&gt; medicaments,&#xa;                              String medicamentName,int quantite) : ArrayList&lt;Medicament&gt;" style="text;strokeColor=none;fillColor=none;align=left;verticalAlign=top;spacingLeft=4;spacingRight=4;overflow=hidden;rotatable=0;points=[[0,0.5],[1,0.5]];portConstraint=eastwest;fontStyle=1" vertex="1" parent="iHK2AN2Xd2E4cDX30vkL-15">
          <mxGeometry y="98" width="510" height="72" as="geometry" />
        </mxCell>
        <mxCell id="iHK2AN2Xd2E4cDX30vkL-19" value="MyConnection" style="swimlane;fontStyle=1;align=center;verticalAlign=top;childLayout=stackLayout;horizontal=1;startSize=26;horizontalStack=0;resizeParent=1;resizeParentMax=0;resizeLast=0;collapsible=1;marginBottom=0;" vertex="1" parent="1">
          <mxGeometry x="550" y="598" width="190" height="164" as="geometry" />
        </mxCell>
        <mxCell id="iHK2AN2Xd2E4cDX30vkL-20" value="+static Connection connection&#xa;+static ArrayList&lt;Medicament&gt; snapshot" style="text;strokeColor=none;fillColor=none;align=left;verticalAlign=top;spacingLeft=4;spacingRight=4;overflow=hidden;rotatable=0;points=[[0,0.5],[1,0.5]];portConstraint=eastwest;fontStyle=1" vertex="1" parent="iHK2AN2Xd2E4cDX30vkL-19">
          <mxGeometry y="26" width="190" height="104" as="geometry" />
        </mxCell>
        <mxCell id="iHK2AN2Xd2E4cDX30vkL-21" value="" style="line;strokeWidth=1;fillColor=none;align=left;verticalAlign=middle;spacingTop=-1;spacingLeft=3;spacingRight=3;rotatable=0;labelPosition=right;points=[];portConstraint=eastwest;strokeColor=inherit;" vertex="1" parent="iHK2AN2Xd2E4cDX30vkL-19">
          <mxGeometry y="130" width="190" height="8" as="geometry" />
        </mxCell>
        <mxCell id="iHK2AN2Xd2E4cDX30vkL-22" value="+ method(type): type" style="text;strokeColor=none;fillColor=none;align=left;verticalAlign=top;spacingLeft=4;spacingRight=4;overflow=hidden;rotatable=0;points=[[0,0.5],[1,0.5]];portConstraint=eastwest;" vertex="1" parent="iHK2AN2Xd2E4cDX30vkL-19">
          <mxGeometry y="138" width="190" height="26" as="geometry" />
        </mxCell>
        <mxCell id="iHK2AN2Xd2E4cDX30vkL-29" value="Utilisateur" style="swimlane;fontStyle=1;align=center;verticalAlign=top;childLayout=stackLayout;horizontal=1;startSize=26;horizontalStack=0;resizeParent=1;resizeParentMax=0;resizeLast=0;collapsible=1;marginBottom=0;" vertex="1" parent="1">
          <mxGeometry x="10" y="340" width="500" height="220" as="geometry" />
        </mxCell>
        <mxCell id="iHK2AN2Xd2E4cDX30vkL-30" value="+ ArrayList&lt;Medicament&gt; panier&#xa;+double solde" style="text;strokeColor=none;fillColor=none;align=left;verticalAlign=top;spacingLeft=4;spacingRight=4;overflow=hidden;rotatable=0;points=[[0,0.5],[1,0.5]];portConstraint=eastwest;fontStyle=1" vertex="1" parent="iHK2AN2Xd2E4cDX30vkL-29">
          <mxGeometry y="26" width="500" height="54" as="geometry" />
        </mxCell>
        <mxCell id="iHK2AN2Xd2E4cDX30vkL-31" value="" style="line;strokeWidth=1;fillColor=none;align=left;verticalAlign=middle;spacingTop=-1;spacingLeft=3;spacingRight=3;rotatable=0;labelPosition=right;points=[];portConstraint=eastwest;strokeColor=inherit;" vertex="1" parent="iHK2AN2Xd2E4cDX30vkL-29">
          <mxGeometry y="80" width="500" height="8" as="geometry" />
        </mxCell>
        <mxCell id="iHK2AN2Xd2E4cDX30vkL-32" value="+ geters()&#xa;+ seters() : void&#xa;+register(String Username,String email,String cin,String password,String confirmPassword)&#xa;+ajouterMedicamentAuPanier(Medicament medicament): void&#xa;+suprimerPanierElement(String MedicName) : void&#xa;+validerpaiement() : void&#xa;+consulterPanier() : void&#xa;+validerPaiement() : void&#xa;&#xa;" style="text;strokeColor=none;fillColor=none;align=left;verticalAlign=top;spacingLeft=4;spacingRight=4;overflow=hidden;rotatable=0;points=[[0,0.5],[1,0.5]];portConstraint=eastwest;fontStyle=1" vertex="1" parent="iHK2AN2Xd2E4cDX30vkL-29">
          <mxGeometry y="88" width="500" height="132" as="geometry" />
        </mxCell>
      </root>
    </mxGraphModel>
  </diagram>
</mxfile>
